<mxfile host="app.diagrams.net" modified="2023-11-11T01:48:33.827Z" agent="Mozilla/5.0 (Windows NT 10.0; Win64; x64) AppleWebKit/537.36 (KHTML, like Gecko) Chrome/119.0.0.0 Safari/537.36" etag="wv3cyzzf5naeOk1qNwbj" version="22.1.0" type="device">
  <diagram name="Page-1" id="_FKvOTMyCsYz9azfO9wE">
    <mxGraphModel dx="2074" dy="1132" grid="1" gridSize="10" guides="1" tooltips="1" connect="1" arrows="1" fold="1" page="1" pageScale="1" pageWidth="850" pageHeight="1100" math="0" shadow="0">
      <root>
        <mxCell id="0" />
        <mxCell id="1" parent="0" />
        <mxCell id="zYNLiWV28eC9Xt1LlwDq-37" style="edgeStyle=orthogonalEdgeStyle;rounded=0;orthogonalLoop=1;jettySize=auto;html=1;entryX=0.5;entryY=0;entryDx=0;entryDy=0;" parent="1" source="zYNLiWV28eC9Xt1LlwDq-1" target="zYNLiWV28eC9Xt1LlwDq-32" edge="1">
          <mxGeometry relative="1" as="geometry" />
        </mxCell>
        <mxCell id="zYNLiWV28eC9Xt1LlwDq-38" style="edgeStyle=orthogonalEdgeStyle;rounded=0;orthogonalLoop=1;jettySize=auto;html=1;entryX=0.5;entryY=0;entryDx=0;entryDy=0;" parent="1" source="zYNLiWV28eC9Xt1LlwDq-1" target="zYNLiWV28eC9Xt1LlwDq-28" edge="1">
          <mxGeometry relative="1" as="geometry">
            <Array as="points">
              <mxPoint x="150" y="360" />
              <mxPoint x="310" y="360" />
            </Array>
          </mxGeometry>
        </mxCell>
        <mxCell id="zYNLiWV28eC9Xt1LlwDq-1" value="Users" style="swimlane;fontStyle=0;childLayout=stackLayout;horizontal=1;startSize=30;horizontalStack=0;resizeParent=1;resizeParentMax=0;resizeLast=0;collapsible=1;marginBottom=0;whiteSpace=wrap;html=1;" parent="1" vertex="1">
          <mxGeometry x="80" y="210" width="140" height="100" as="geometry" />
        </mxCell>
        <mxCell id="zYNLiWV28eC9Xt1LlwDq-2" value="usernameID&lt;br&gt;username&lt;br&gt;email" style="text;strokeColor=none;fillColor=none;align=left;verticalAlign=middle;spacingLeft=4;spacingRight=4;overflow=hidden;points=[[0,0.5],[1,0.5]];portConstraint=eastwest;rotatable=0;whiteSpace=wrap;html=1;" parent="zYNLiWV28eC9Xt1LlwDq-1" vertex="1">
          <mxGeometry y="30" width="140" height="70" as="geometry" />
        </mxCell>
        <mxCell id="zYNLiWV28eC9Xt1LlwDq-25" style="edgeStyle=orthogonalEdgeStyle;rounded=0;orthogonalLoop=1;jettySize=auto;html=1;entryX=1;entryY=0.5;entryDx=0;entryDy=0;" parent="1" source="zYNLiWV28eC9Xt1LlwDq-8" target="zYNLiWV28eC9Xt1LlwDq-13" edge="1">
          <mxGeometry relative="1" as="geometry" />
        </mxCell>
        <mxCell id="zYNLiWV28eC9Xt1LlwDq-8" value="Items" style="swimlane;fontStyle=0;childLayout=stackLayout;horizontal=1;startSize=30;horizontalStack=0;resizeParent=1;resizeParentMax=0;resizeLast=0;collapsible=1;marginBottom=0;whiteSpace=wrap;html=1;" parent="1" vertex="1">
          <mxGeometry x="570" y="255" width="140" height="170" as="geometry" />
        </mxCell>
        <mxCell id="zYNLiWV28eC9Xt1LlwDq-9" value="itemID&lt;br&gt;name&lt;br&gt;description&lt;br&gt;price&lt;br&gt;device&lt;br&gt;designs&lt;br&gt;textures&lt;br&gt;caseTypes" style="text;strokeColor=none;fillColor=none;align=left;verticalAlign=middle;spacingLeft=4;spacingRight=4;overflow=hidden;points=[[0,0.5],[1,0.5]];portConstraint=eastwest;rotatable=0;whiteSpace=wrap;html=1;" parent="zYNLiWV28eC9Xt1LlwDq-8" vertex="1">
          <mxGeometry y="30" width="140" height="140" as="geometry" />
        </mxCell>
        <mxCell id="zYNLiWV28eC9Xt1LlwDq-12" value="Cart" style="swimlane;fontStyle=0;childLayout=stackLayout;horizontal=1;startSize=30;horizontalStack=0;resizeParent=1;resizeParentMax=0;resizeLast=0;collapsible=1;marginBottom=0;whiteSpace=wrap;html=1;" parent="1" vertex="1">
          <mxGeometry x="360" y="280" width="140" height="90" as="geometry" />
        </mxCell>
        <mxCell id="zYNLiWV28eC9Xt1LlwDq-13" value="usernameID&lt;br&gt;itemID&lt;br&gt;quantity" style="text;strokeColor=none;fillColor=none;align=left;verticalAlign=middle;spacingLeft=4;spacingRight=4;overflow=hidden;points=[[0,0.5],[1,0.5]];portConstraint=eastwest;rotatable=0;whiteSpace=wrap;html=1;" parent="zYNLiWV28eC9Xt1LlwDq-12" vertex="1">
          <mxGeometry y="30" width="140" height="60" as="geometry" />
        </mxCell>
        <mxCell id="zYNLiWV28eC9Xt1LlwDq-16" value="Payment" style="swimlane;fontStyle=0;childLayout=stackLayout;horizontal=1;startSize=30;horizontalStack=0;resizeParent=1;resizeParentMax=0;resizeLast=0;collapsible=1;marginBottom=0;whiteSpace=wrap;html=1;" parent="1" vertex="1">
          <mxGeometry x="360" y="160" width="140" height="90" as="geometry" />
        </mxCell>
        <mxCell id="zYNLiWV28eC9Xt1LlwDq-17" value="usernameID&lt;br&gt;token&lt;br&gt;name" style="text;strokeColor=none;fillColor=none;align=left;verticalAlign=middle;spacingLeft=4;spacingRight=4;overflow=hidden;points=[[0,0.5],[1,0.5]];portConstraint=eastwest;rotatable=0;whiteSpace=wrap;html=1;" parent="zYNLiWV28eC9Xt1LlwDq-16" vertex="1">
          <mxGeometry y="30" width="140" height="60" as="geometry" />
        </mxCell>
        <mxCell id="zYNLiWV28eC9Xt1LlwDq-22" style="edgeStyle=orthogonalEdgeStyle;rounded=0;orthogonalLoop=1;jettySize=auto;html=1;" parent="1" source="zYNLiWV28eC9Xt1LlwDq-2" target="zYNLiWV28eC9Xt1LlwDq-13" edge="1">
          <mxGeometry relative="1" as="geometry" />
        </mxCell>
        <mxCell id="zYNLiWV28eC9Xt1LlwDq-23" style="edgeStyle=orthogonalEdgeStyle;rounded=0;orthogonalLoop=1;jettySize=auto;html=1;exitX=1;exitY=0.5;exitDx=0;exitDy=0;entryX=0;entryY=0.5;entryDx=0;entryDy=0;" parent="1" source="zYNLiWV28eC9Xt1LlwDq-2" target="zYNLiWV28eC9Xt1LlwDq-17" edge="1">
          <mxGeometry relative="1" as="geometry" />
        </mxCell>
        <mxCell id="zYNLiWV28eC9Xt1LlwDq-26" value="usernameID: Unique identifier for users&lt;br&gt;username: Username of users&lt;br&gt;salt: Random data to be fed as additional input to hash function&lt;br&gt;passwordHash: Salted and hashed version of passwords&lt;br&gt;email: Email of users&lt;br&gt;token: A token used for secure payments&lt;br&gt;name (Payment): Name for the payment token&lt;br&gt;quantity: The quantity of an item in a user&#39;s cart&lt;br&gt;itemID: Unique identifier for items&lt;br&gt;name (Items): Name of an item&lt;br&gt;description: Description of an item&lt;br&gt;price: Price of an item&lt;br&gt;device: The device an item was made for&lt;br&gt;designs: Available designs for an item&lt;br&gt;textures: Available textures for an item&lt;br&gt;caseTypes: Available case types for an item" style="whiteSpace=wrap;html=1;aspect=fixed;" parent="1" vertex="1">
          <mxGeometry x="80" y="500" width="360" height="360" as="geometry" />
        </mxCell>
        <mxCell id="zYNLiWV28eC9Xt1LlwDq-27" value="&lt;b&gt;&lt;font style=&quot;font-size: 15px;&quot;&gt;Data Dictionary&lt;/font&gt;&lt;/b&gt;" style="text;html=1;strokeColor=none;fillColor=none;align=center;verticalAlign=middle;whiteSpace=wrap;rounded=0;" parent="1" vertex="1">
          <mxGeometry x="188.12" y="520" width="143.75" height="30" as="geometry" />
        </mxCell>
        <mxCell id="zYNLiWV28eC9Xt1LlwDq-28" value="Hashes" style="swimlane;fontStyle=0;childLayout=stackLayout;horizontal=1;startSize=30;horizontalStack=0;resizeParent=1;resizeParentMax=0;resizeLast=0;collapsible=1;marginBottom=0;whiteSpace=wrap;html=1;" parent="1" vertex="1">
          <mxGeometry x="240" y="390" width="140" height="80" as="geometry" />
        </mxCell>
        <mxCell id="zYNLiWV28eC9Xt1LlwDq-29" value="usernameID&lt;br&gt;passwordHash" style="text;strokeColor=none;fillColor=none;align=left;verticalAlign=middle;spacingLeft=4;spacingRight=4;overflow=hidden;points=[[0,0.5],[1,0.5]];portConstraint=eastwest;rotatable=0;whiteSpace=wrap;html=1;" parent="zYNLiWV28eC9Xt1LlwDq-28" vertex="1">
          <mxGeometry y="30" width="140" height="50" as="geometry" />
        </mxCell>
        <mxCell id="zYNLiWV28eC9Xt1LlwDq-32" value="Salts" style="swimlane;fontStyle=0;childLayout=stackLayout;horizontal=1;startSize=30;horizontalStack=0;resizeParent=1;resizeParentMax=0;resizeLast=0;collapsible=1;marginBottom=0;whiteSpace=wrap;html=1;" parent="1" vertex="1">
          <mxGeometry x="80" y="390" width="140" height="80" as="geometry" />
        </mxCell>
        <mxCell id="zYNLiWV28eC9Xt1LlwDq-33" value="usernameID&lt;br&gt;salt" style="text;strokeColor=none;fillColor=none;align=left;verticalAlign=middle;spacingLeft=4;spacingRight=4;overflow=hidden;points=[[0,0.5],[1,0.5]];portConstraint=eastwest;rotatable=0;whiteSpace=wrap;html=1;" parent="zYNLiWV28eC9Xt1LlwDq-32" vertex="1">
          <mxGeometry y="30" width="140" height="50" as="geometry" />
        </mxCell>
        <mxCell id="NlfKRfeRalax6i9CmGk4-1" value="Shipping" style="swimlane;fontStyle=0;childLayout=stackLayout;horizontal=1;startSize=30;horizontalStack=0;resizeParent=1;resizeParentMax=0;resizeLast=0;collapsible=1;marginBottom=0;whiteSpace=wrap;html=1;" vertex="1" parent="1">
          <mxGeometry x="360" y="60" width="140" height="70" as="geometry" />
        </mxCell>
        <mxCell id="NlfKRfeRalax6i9CmGk4-2" value="usernameID&lt;br&gt;shipping" style="text;strokeColor=none;fillColor=none;align=left;verticalAlign=middle;spacingLeft=4;spacingRight=4;overflow=hidden;points=[[0,0.5],[1,0.5]];portConstraint=eastwest;rotatable=0;whiteSpace=wrap;html=1;" vertex="1" parent="NlfKRfeRalax6i9CmGk4-1">
          <mxGeometry y="30" width="140" height="40" as="geometry" />
        </mxCell>
        <mxCell id="NlfKRfeRalax6i9CmGk4-5" style="edgeStyle=orthogonalEdgeStyle;rounded=0;orthogonalLoop=1;jettySize=auto;html=1;exitX=1;exitY=0.5;exitDx=0;exitDy=0;entryX=0;entryY=0.5;entryDx=0;entryDy=0;" edge="1" parent="1" source="zYNLiWV28eC9Xt1LlwDq-2" target="NlfKRfeRalax6i9CmGk4-2">
          <mxGeometry relative="1" as="geometry" />
        </mxCell>
      </root>
    </mxGraphModel>
  </diagram>
</mxfile>
